<svg height="512pt" viewBox="-18 0 512 512" width="512pt" xmlns="http://www.w3.org/2000/svg"><path d="m132.582031 121.632812h221.738281v166.398438h-221.738281zm0 0" fill="#ffb13b"/><path d="m243.125 121.632812h111.195312v166.398438h-111.195312zm0 0" fill="#fe8205"/><path d="m212.714844 224.851562v51.894532l30.410156 85.09375 30.410156-85.09375v-51.894532zm0 0" fill="#ffbeaa"/><path d="m243.125 224.851562v136.988282l30.410156-85.09375v-51.894532zm0 0" fill="#faa68e"/><path d="m337.714844 49.476562c-19.699219-30.980468-53.359375-49.476562-90.039063-49.476562h-8.449219c-36.679687 0-70.339843 18.496094-90.035156 49.46875-10.867187 17.070312-16.613281 36.839844-16.613281 57.167969v42.179687c0 29.621094 11.535156 57.464844 32.472656 78.390625 20.941407 20.941407 48.78125 32.476563 78.394531 32.476563 61.136719 0 110.878907-49.738282 110.878907-110.867188v-42.179687c0-20.328125-5.746094-40.097657-16.609375-57.160157zm0 0" fill="#ffdecf"/><path d="m337.714844 49.476562c-19.699219-30.980468-53.359375-49.476562-90.039063-49.476562h-4.550781v259.679688c.105469 0 .214844.003906.320312.003906 61.136719 0 110.878907-49.734375 110.878907-110.867188v-42.175781c0-20.332031-5.746094-40.101563-16.609375-57.164063zm0 0" fill="#ffbeaa"/><path d="m192.375 132.023438h29.988281v25.328124h-29.988281zm0 0" fill="#ffbeaa"/><path d="m260.539062 132.023438h29.992188v25.328124h-29.992188zm0 0" fill="#faa68e"/><path d="m243.125 211.417969c-21.359375 0-38.738281-17.378907-38.738281-38.742188h29.988281c0 4.824219 3.925781 8.75 8.75 8.75s8.75-3.925781 8.75-8.75h29.988281c0 21.363281-17.378906 38.742188-38.738281 38.742188zm0 0" fill="#ffbeaa"/><path d="m337.714844 49.476562c-19.699219-30.980468-53.359375-49.476562-90.039063-49.476562h-8.449219c-36.679687 0-70.339843 18.496094-90.035156 49.46875-10.867187 17.070312-16.613281 36.839844-16.613281 57.167969v14.996093h221.746094v-14.996093c0-20.328125-5.746094-40.097657-16.609375-57.160157zm0 0" fill="#ffb13b"/><path d="m354.324219 106.636719v14.996093h-221.746094v-14.996093c0-12.054688 2.019531-23.902344 5.929687-35.117188h209.886719c3.910157 11.214844 5.929688 23.0625 5.929688 35.117188zm0 0" fill="#70ddef"/><path d="m81.308594 72.976562c-23.648438 0-42.890625 19.238282-42.890625 42.886719v28.972657h85.777343v-28.972657c0-23.648437-19.238281-42.886719-42.886718-42.886719zm0 0" fill="#ffdecf"/><path d="m81.308594 72.976562v71.859376h42.890625v-28.96875c-.003907-23.652344-19.242188-42.890626-42.890625-42.890626zm0 0" fill="#ffbeaa"/><path d="m273.90625 258.042969-30.78125 69.445312-30.78125-69.445312h-88.144531v-127.199219h-85.78125v159.78125c0 30.675781 24.871093 55.546875 55.550781 55.546875h38.613281v163.40625h221.738281v-165.152344h9.234376v103.332031h85.777343v-134.167968c0-30.679688-24.867187-55.546875-55.546875-55.546875zm0 0" fill="#70ddef"/><path d="m393.785156 258.042969h-119.878906l-30.78125 69.445312v182.089844h111.195312v-165.152344h9.234376v103.332031h85.777343v-134.167968c0-30.679688-24.871093-55.546875-55.546875-55.546875zm0 0" fill="#3abcef"/><path d="m258.121094 293.660156v124.335938h-29.992188v-124.335938l14.996094 33.832032zm0 0" fill="#a65d4e"/><path d="m363.554688 417.722656v48.964844c0 23.648438 19.238281 42.890625 42.886718 42.890625 23.648438 0 42.890625-19.242187 42.890625-42.890625v-48.964844zm0 0" fill="#ffdecf"/><path d="m406.441406 417.722656v91.855469c23.648438 0 42.890625-19.238281 42.890625-42.886719v-48.96875zm0 0" fill="#ffbeaa"/><path d="m337.714844 49.476562c-19.699219-30.980468-53.359375-49.476562-90.039063-49.476562h-4.550781v121.632812h111.199219v-14.996093c0-20.328125-5.746094-40.097657-16.609375-57.160157zm0 0" fill="#fe8205"/><path d="m348.394531 71.519531h-105.269531v50.113281h111.199219v-14.992187c0-12.058594-2.019531-23.90625-5.929688-35.121094zm0 0" fill="#3abcef"/><path d="m251.875 172.675781c0 4.824219-3.925781 8.75-8.75 8.75v29.992188c21.359375 0 38.738281-17.378907 38.738281-38.742188zm0 0" fill="#faa68e"/><path d="m243.125 327.492188v-.003907 90.507813h14.996094v-124.335938zm0 0" fill="#915041"/><path d="m475.539062 58.726562-90.171874 36.570313v75.023437l-10.328126 11.027344c-5.660156 6.042969-5.347656 15.53125.695313 21.195313 2.894531 2.707031 6.574219 4.050781 10.246094 4.050781 4.003906 0 7.996093-1.59375 10.949219-4.746094l14.378906-15.355468c2.707031-2.890626 4.035156-6.574219 4.035156-10.25h.011719v-60.746094l30.195312-12.242188v47.550782l-10.328125 11.027343c-5.660156 6.046875-5.347656 15.535157.695313 21.195313 2.894531 2.707031 6.574219 4.050781 10.246093 4.050781 4.003907 0 8-1.59375 10.949219-4.746094l14.378907-15.351562c2.707031-2.894531 4.035156-6.574219 4.035156-10.246094h.015625v-98.007813zm0 0" fill="#c38778"/><path d="m14.375 475.726562-10.324219 11.027344c-5.660156 6.046875-5.351562 15.535156.695313 21.195313 2.894531 2.710937 6.574218 4.050781 10.246094 4.050781 4.003906 0 7.996093-1.59375 10.949218-4.746094l14.375-15.351562c2.710938-2.894532 4.035156-6.578125 4.035156-10.25h.015626v-60.746094l30.191406-12.246094v47.550782l-10.324219 11.03125c-5.660156 6.042968-5.351563 15.53125.695313 21.195312 2.890624 2.707031 6.574218 4.046875 10.246093 4.046875 4.003907 0 7.996094-1.59375 10.949219-4.742187l14.375-15.355469c2.707031-2.890625 4.035156-6.570313 4.035156-10.246094h.015625v-98.003906l-90.175781 36.566406zm0 0" fill="#c38778"/><g fill="#a65d4e"><path d="m59.597656 382.367188v32.363281l14.964844-6.070313v47.550782l-10.328125 11.03125c-5.660156 6.042968-5.347656 15.53125.695313 21.195312 2.894531 2.707031 6.574218 4.046875 10.246093 4.046875 4.003907 0 8-1.59375 10.949219-4.742187l14.378906-15.355469c2.707032-2.890625 4.03125-6.570313 4.03125-10.246094h.015625v-98.003906zm0 0"/><path d="m430.820312 76.863281v32.363281l14.730469-5.972656v47.550782l-10.328125 11.027343c-5.660156 6.046875-5.347656 15.535157.695313 21.195313 2.894531 2.707031 6.574219 4.050781 10.246093 4.050781 4.003907 0 8-1.59375 10.949219-4.746094l14.378907-15.351562c2.707031-2.894531 4.035156-6.574219 4.035156-10.246094h.015625v-98.007813zm0 0"/></g></svg>