<?xml version="1.0" encoding="iso-8859-1"?>
<!-- Generator: Adobe Illustrator 19.0.0, SVG Export Plug-In . SVG Version: 6.00 Build 0)  -->
<svg version="1.1" id="Layer_1" xmlns="http://www.w3.org/2000/svg" xmlns:xlink="http://www.w3.org/1999/xlink" x="0px" y="0px"
	 viewBox="0 0 494.82 494.82" style="enable-background:new 0 0 494.82 494.82;" xml:space="preserve">
<g>
	<path style="fill:#006DF0;" d="M342.41,314.82c30.33,0,55,24.67,55,55h70c0-67.894-54.407-123.31-121.901-124.961l-55.643,69.961
		H342.41z"/>
	<path style="fill:#006DF0;" d="M152.41,314.82h52.464l-55.642-69.96C81.775,246.552,27.41,301.953,27.41,369.82h70
		C97.41,339.49,122.08,314.82,152.41,314.82z"/>
	<path style="fill:#004FAC;" d="M397.41,369.82c0,30.32-24.67,55-55,55h-190c-30.33,0-55-24.68-55-55h-70c0,68.92,56.08,125,125,125
		h190c68.92,0,125-56.08,125-125H397.41z"/>
	<path style="fill:#FFFFFF;" d="M342.41,314.82h-52.544l-42.496,53.43l-42.496-53.43H152.41c-30.33,0-55,24.67-55,55h300
		C397.41,339.49,372.74,314.82,342.41,314.82z"/>
	<path style="fill:#D8D7DA;" d="M152.41,424.82h190c30.33,0,55-24.68,55-55h-300C97.41,400.14,122.08,424.82,152.41,424.82z"/>
	<path style="fill:#CD2A00;" d="M311.06,139.7c0,35.11-28.57,63.68-63.69,63.68v164.87l42.496-53.43l55.643-69.961l12.741-16.019
		c19.91-25.17,30.43-55.44,30.43-87.53C388.68,63.39,325.29,0,247.37,0v76.01C282.49,76.01,311.06,104.58,311.06,139.7z"/>
	<path style="fill:#D8D7DA;" d="M311.06,139.7c0-35.12-28.57-63.69-63.69-63.69v127.37C282.49,203.38,311.06,174.81,311.06,139.7z"
		/>
	<path style="fill:#FF3501;" d="M247.37,368.25V203.38c-35.12,0-63.69-28.57-63.69-63.68c0-35.12,28.57-63.69,63.69-63.69V0
		c-77.92,0-141.31,63.39-141.31,141.31c0,32.09,10.52,62.36,30.47,87.58l12.702,15.97l55.642,69.96L247.37,368.25z"/>
	<path style="fill:#FFFFFF;" d="M183.68,139.7c0,35.11,28.57,63.68,63.69,63.68V76.01C212.25,76.01,183.68,104.58,183.68,139.7z"/>
</g>
<g>
</g>
<g>
</g>
<g>
</g>
<g>
</g>
<g>
</g>
<g>
</g>
<g>
</g>
<g>
</g>
<g>
</g>
<g>
</g>
<g>
</g>
<g>
</g>
<g>
</g>
<g>
</g>
<g>
</g>
</svg>
