<svg id="Capa_1" enable-background="new 0 0 512 512" height="512" viewBox="0 0 512 512" width="512" xmlns="http://www.w3.org/2000/svg"><g><path d="m334.705 194.473h154.685v302.527h-154.685z" fill="#f5d7b0"/><path d="m22.61 194.473h154.685v302.527h-154.685z" fill="#f9ecd7"/><path d="m334.705 209.474h154.685-.015c52.283-52.282 2.695-109.956-35.574-129.36-34.259-17.37-40.791-34.296-41.753-37.656-.962 3.36-7.494 20.287-41.753 37.656-38.269 19.404-87.857 77.078-35.574 129.36z" fill="#d10040"/><path d="m22.61 209.474h154.685-.015c52.283-52.282 2.695-109.956-35.574-129.36-34.259-17.37-40.791-34.296-41.753-37.656-.962 3.36-7.494 20.287-41.753 37.656-38.269 19.404-87.857 77.078-35.574 129.36z" fill="#f3403f"/><path d="m159.017 194.473h193.968v102.861h-193.968z" fill="#f9b700"/><path d="m256 194.473h96.984v102.861h-96.984z" fill="#f49d14"/><path d="m204.458 194.473h30v102.861h-30z" fill="#fee46f"/><path d="m277.542 194.473h30v102.861h-30z" fill="#fed330"/><path d="m512 512h-93.906l-162.094-16.01-162.104 16.01h-93.896v-135.438l93.895-93.895 162.105 16.01 162.105-16.01 93.895 93.895z" fill="#f9b700"/><path d="m418.105 282.667-162.105 16.01v197.313l162.094 16.01h93.906v-135.438z" fill="#f49d14"/><path d="m93.896 282.667h324.198v229.333h-324.198z" fill="#f9ecd7"/><path d="m256 282.667h162.094v229.333h-162.094z" fill="#f5d7b0"/><path d="m308.367 47.23c-42.968-21.786-51.161-43.016-52.367-47.23-1.206 4.214-9.4 25.444-52.368 47.23-47.997 24.336-110.19 96.67-44.617 162.243h193.968c65.574-65.573 3.38-137.907-44.616-162.243z" fill="#f77"/><path d="m308.367 47.23c-42.968-21.786-51.161-43.016-52.367-47.23v209.473h96.983c65.574-65.573 3.38-137.907-44.616-162.243z" fill="#f3403f"/><g><g><path d="m325.613 512h-139.226v-90.978c0-18.535 7.257-36 20.435-49.178 13.176-13.176 30.641-20.434 49.172-20.434h.007c38.384 0 69.612 31.228 69.612 69.612z" fill="#f9b700"/></g></g><path d="m325.613 421.022c0-38.384-31.229-69.612-69.612-69.612h-.001v160.59h69.613z" fill="#f49d14"/></g></svg>