<svg id="Capa_1" enable-background="new 0 0 512 512" height="512" viewBox="0 0 512 512" width="512" xmlns="http://www.w3.org/2000/svg"><g><path d="m512 442h-512v-153.861h512z" fill="#a1d4fd"/><path d="m305.726 288.139h206.274v153.861h-206.274z" fill="#74bdef"/><path d="m456.061 19.683c-16.293-16.293-38.971-22.79-63.86-18.293-22.31 4.031-45.116 16.77-64.217 35.871-8.88 8.88-16.364 18.566-22.258 28.626-5.894-10.06-13.378-19.746-22.258-28.626-19.101-19.101-41.907-31.84-64.217-35.871-24.888-4.498-47.567 2-63.86 18.293l-10.606 10.607 145.655 145.655 10.606-10.607c1.665-1.665 3.221-3.399 4.68-5.193 1.459 1.794 3.016 3.528 4.68 5.193l10.606 10.607 145.656-145.655z" fill="#8adb53"/><path d="m456.061 19.683c-16.293-16.293-38.971-22.79-63.86-18.293-22.31 4.031-45.116 16.77-64.217 35.871-8.88 8.88-16.364 18.566-22.258 28.626v94.258c1.459 1.794 3.016 3.528 4.68 5.193l10.606 10.607 145.656-145.655z" fill="#4fc16e"/><path d="m305.719 169.732h-205.988v-15c0-23.042 11.443-43.672 32.221-58.091 18.626-12.925 43.76-20.043 70.773-20.043s52.147 7.118 70.773 20.043c20.778 14.418 32.221 35.049 32.221 58.091z" fill="#4fc16e"/><path d="m165.998 300.386-10.606-10.607c-16.293-16.293-22.79-38.972-18.293-63.86 4.031-22.31 16.77-45.116 35.871-64.216 19.101-19.101 41.907-31.84 64.217-35.871 24.889-4.497 47.567 2 63.86 18.293l10.607 10.606z" fill="#8adb53"/><path d="m511.706 169.732h-205.987v-15c0-23.042 11.443-43.672 32.221-58.091 18.626-12.925 43.76-20.043 70.773-20.043s52.147 7.118 70.773 20.043c20.778 14.418 32.221 35.049 32.221 58.091v15z" fill="#369151"/><path d="m445.455 300.386-145.655-145.654 10.607-10.606c16.293-16.293 38.972-22.79 63.86-18.293 22.31 4.031 45.116 16.77 64.217 35.871s31.84 41.906 35.871 64.216c4.497 24.888-2 47.567-18.292 63.86z" fill="#4fc16e"/><path d="m355.726 442.003h-100v-123.862l16.01-15-16.01-15v-31.911l16.01-15.227-16.01-14.773v-31.912l16.01-15-16.01-15v-11.902c0-27.57 22.43-50 50-50s50 22.43 50 50v11.902l-16.01 15 16.01 15v31.912l-16.01 14.773 16.01 15.227v31.912l-16.01 15 16.01 15z" fill="#ce7000"/><path d="m355.726 152.416c0-27.57-22.43-50-50-50v339.586h50v-123.861l-16.01-15 16.01-15v-31.911l-16.01-15.227 16.01-14.773v-31.912l-16.01-15 16.01-15z" fill="#823c08"/><g fill="#f9b700"><path d="m255.726 164.318h100v30h-100z"/><path d="m255.726 226.23h100v30h-100z"/><path d="m255.726 288.141h100v30h-100z"/></g><path d="m305.726 164.318h50v30h-50z" fill="#f49d14"/><path d="m305.726 226.23h50v30h-50z" fill="#f49d14"/><path d="m305.726 288.141h50v30h-50z" fill="#f49d14"/><g><g><path d="m512 512h-512v-271h15c36.273 0 71.658 7.039 105.171 20.92 33.512 13.881 63.51 33.925 89.16 59.575l18.798 18.798c46.241 46.241 107.723 71.707 173.117 71.707h110.754z" fill="#f9ecd7"/></g></g><path d="m512 412h-110.754c-33.362 0-65.699-6.643-95.52-19.276v119.276h206.274z" fill="#f5d7b0"/><path d="m0 412h100.667v30h-100.667z" fill="#f5d7b0"/><path d="m130.949 412h30.282v30h-30.282z" fill="#f5d7b0"/></g></svg>