<?xml version="1.0" encoding="iso-8859-1"?>
<!-- Generator: Adobe Illustrator 19.0.0, SVG Export Plug-In . SVG Version: 6.00 Build 0)  -->
<svg version="1.1" id="Capa_1" xmlns="http://www.w3.org/2000/svg" xmlns:xlink="http://www.w3.org/1999/xlink" x="0px" y="0px"
	 viewBox="0 0 512 512" style="enable-background:new 0 0 512 512;" xml:space="preserve">
<path style="fill:#FFB74F;" d="M435.042,512h-358v-90h358V512z"/>
<rect x="256.04" y="422" style="fill:#FF9A00;" width="179" height="90"/>
<path style="fill:#FFB74F;" d="M442.042,392h-372v-90h372V392z"/>
<rect x="256.04" y="302" style="fill:#FF9A00;" width="186" height="90"/>
<path style="fill:#FFE670;" d="M441.042,452h-370v-90h370V452z"/>
<rect x="256.04" y="362" style="fill:#FFDB2D;" width="185" height="90"/>
<path style="fill:#A17852;" d="M491.177,512h-90.053l20.781-350h90.053L491.177,512z"/>
<path style="fill:#C8AD92;" d="M110.958,512H20.906L0.125,162h90.053L110.958,512z"/>
<path style="fill:#FF7A53;" d="M160.042,392h-90V225h90V392z"/>
<rect x="115.04" y="225" style="fill:#FF4F19;" width="45" height="167"/>
<path style="fill:#CA80DE;" d="M230.042,125c0-30.707-21.411-56.491-50.083-63.253C178.258,27.411,149.792,0,115.042,0
	S51.825,27.411,50.124,61.747C21.452,68.509,0.042,94.293,0.042,125c0,15.306,5.33,29.382,14.215,40.5
	C5.372,176.618,0.042,190.694,0.042,206c0,35.841,29.159,65,65,65c20.084,0,38.067-9.16,50-23.518
	c11.933,14.358,29.916,23.518,50,23.518c35.841,0,65-29.159,65-65c0-15.306-5.33-29.382-14.215-40.5
	C224.711,154.382,230.042,140.306,230.042,125z"/>
<path style="fill:#AB3CCC;" d="M230.042,125c0-30.707-21.411-56.491-50.083-63.253C178.258,27.411,149.792,0,115.042,0v247.482
	c11.933,14.358,29.916,23.518,50,23.518c35.841,0,65-29.159,65-65c0-15.306-5.33-29.382-14.215-40.5
	C224.711,154.382,230.042,140.306,230.042,125z"/>
<path style="fill:#EDCFF4;" d="M186.648,210.606l-21.213-21.213l-35.394,35.394v-38.574l56.606-56.606l-21.213-21.213
	l-35.394,35.394V53h-30v90.787l-35.394-35.394l-21.213,21.213l56.606,56.606v38.574l-35.394-35.394l-21.213,21.213l52.539,52.539
	c7.312-3.975,13.784-9.307,19.067-15.663c5.283,6.357,11.755,11.688,19.067,15.663L186.648,210.606z"/>
<path style="fill:#E1B5EC;" d="M130.042,224.787v-38.574l56.606-56.606l-21.213-21.213l-35.394,35.394V53h-15v194.482
	c5.283,6.357,11.755,11.688,19.067,15.663l52.539-52.539l-21.213-21.213L130.042,224.787z"/>
<g>
</g>
<g>
</g>
<g>
</g>
<g>
</g>
<g>
</g>
<g>
</g>
<g>
</g>
<g>
</g>
<g>
</g>
<g>
</g>
<g>
</g>
<g>
</g>
<g>
</g>
<g>
</g>
<g>
</g>
</svg>
